<mxfile host="app.diagrams.net" modified="2022-03-13T10:15:19.916Z" agent="5.0 (Macintosh; Intel Mac OS X 10_15_7) AppleWebKit/537.36 (KHTML, like Gecko) Chrome/99.0.4844.51 Safari/537.36" etag="eaEBEKF2zvAYYM6SODl9" version="17.1.2" type="github">
  <diagram id="_mq-294duvgr5aQ91RPI" name="Page-1">
    <mxGraphModel dx="1226" dy="1153" grid="1" gridSize="10" guides="1" tooltips="1" connect="1" arrows="1" fold="1" page="1" pageScale="1" pageWidth="827" pageHeight="1169" math="0" shadow="0">
      <root>
        <mxCell id="0" />
        <mxCell id="1" parent="0" />
        <mxCell id="VOB-MAA1Yk0Ctn-mByTi-12" style="edgeStyle=orthogonalEdgeStyle;rounded=0;orthogonalLoop=1;jettySize=auto;html=1;exitX=0.5;exitY=1;exitDx=0;exitDy=0;" edge="1" parent="1" source="VOB-MAA1Yk0Ctn-mByTi-1" target="VOB-MAA1Yk0Ctn-mByTi-2">
          <mxGeometry relative="1" as="geometry" />
        </mxCell>
        <mxCell id="VOB-MAA1Yk0Ctn-mByTi-1" value="&lt;p style=&quot;margin: 0px ; margin-top: 4px ; text-align: center&quot;&gt;&lt;b&gt;NotificationService&lt;/b&gt;&lt;/p&gt;&lt;hr size=&quot;1&quot;&gt;&lt;p style=&quot;margin: 0px ; margin-left: 4px&quot;&gt;&lt;br&gt;&lt;/p&gt;&lt;p style=&quot;margin: 0px ; margin-left: 4px&quot;&gt;+ send()&lt;/p&gt;" style="verticalAlign=top;align=left;overflow=fill;fontSize=12;fontFamily=Helvetica;html=1;" vertex="1" parent="1">
          <mxGeometry x="400" y="200" width="160" height="70" as="geometry" />
        </mxCell>
        <mxCell id="VOB-MAA1Yk0Ctn-mByTi-2" value="&lt;p style=&quot;margin: 0px ; margin-top: 4px ; text-align: center&quot;&gt;&lt;b&gt;Main&lt;/b&gt;&lt;/p&gt;&lt;hr size=&quot;1&quot;&gt;&lt;div style=&quot;height: 2px&quot;&gt;&lt;/div&gt;&lt;hr size=&quot;1&quot;&gt;&lt;div style=&quot;height: 2px&quot;&gt;&lt;/div&gt;" style="verticalAlign=top;align=left;overflow=fill;fontSize=12;fontFamily=Helvetica;html=1;" vertex="1" parent="1">
          <mxGeometry x="410" y="400" width="140" height="60" as="geometry" />
        </mxCell>
        <mxCell id="VOB-MAA1Yk0Ctn-mByTi-10" style="edgeStyle=orthogonalEdgeStyle;rounded=0;orthogonalLoop=1;jettySize=auto;html=1;exitX=0.5;exitY=1;exitDx=0;exitDy=0;entryX=0.25;entryY=0;entryDx=0;entryDy=0;" edge="1" parent="1" source="VOB-MAA1Yk0Ctn-mByTi-5" target="VOB-MAA1Yk0Ctn-mByTi-1">
          <mxGeometry relative="1" as="geometry" />
        </mxCell>
        <mxCell id="VOB-MAA1Yk0Ctn-mByTi-5" value="&lt;p style=&quot;margin: 0px ; margin-top: 4px ; text-align: center&quot;&gt;&lt;br&gt;&lt;b&gt;Connection&lt;/b&gt;&lt;/p&gt;" style="verticalAlign=top;align=left;overflow=fill;fontSize=12;fontFamily=Helvetica;html=1;" vertex="1" parent="1">
          <mxGeometry x="160" y="80" width="140" height="60" as="geometry" />
        </mxCell>
        <mxCell id="VOB-MAA1Yk0Ctn-mByTi-9" style="edgeStyle=orthogonalEdgeStyle;rounded=0;orthogonalLoop=1;jettySize=auto;html=1;exitX=0.5;exitY=1;exitDx=0;exitDy=0;entryX=0.5;entryY=0;entryDx=0;entryDy=0;" edge="1" parent="1" source="VOB-MAA1Yk0Ctn-mByTi-6" target="VOB-MAA1Yk0Ctn-mByTi-1">
          <mxGeometry relative="1" as="geometry" />
        </mxCell>
        <mxCell id="VOB-MAA1Yk0Ctn-mByTi-6" value="&lt;p style=&quot;margin: 0px ; margin-top: 4px ; text-align: center&quot;&gt;&lt;br&gt;&lt;b&gt;Authentication&lt;/b&gt;&lt;/p&gt;" style="verticalAlign=top;align=left;overflow=fill;fontSize=12;fontFamily=Helvetica;html=1;" vertex="1" parent="1">
          <mxGeometry x="410" y="80" width="140" height="60" as="geometry" />
        </mxCell>
        <mxCell id="VOB-MAA1Yk0Ctn-mByTi-8" style="edgeStyle=orthogonalEdgeStyle;rounded=0;orthogonalLoop=1;jettySize=auto;html=1;exitX=0.5;exitY=1;exitDx=0;exitDy=0;entryX=0.75;entryY=0;entryDx=0;entryDy=0;" edge="1" parent="1" source="VOB-MAA1Yk0Ctn-mByTi-7" target="VOB-MAA1Yk0Ctn-mByTi-1">
          <mxGeometry relative="1" as="geometry" />
        </mxCell>
        <mxCell id="VOB-MAA1Yk0Ctn-mByTi-7" value="&lt;p style=&quot;margin: 0px ; margin-top: 4px ; text-align: center&quot;&gt;&lt;br&gt;&lt;b&gt;Message&lt;/b&gt;&lt;/p&gt;" style="verticalAlign=top;align=left;overflow=fill;fontSize=12;fontFamily=Helvetica;html=1;" vertex="1" parent="1">
          <mxGeometry x="640" y="80" width="140" height="60" as="geometry" />
        </mxCell>
      </root>
    </mxGraphModel>
  </diagram>
</mxfile>
